<?xml version="1.0" encoding="UTF-8"?>
<svg width="85px" height="104px" viewBox="0 0 85 104" version="1.1" xmlns="http://www.w3.org/2000/svg" xmlns:xlink="http://www.w3.org/1999/xlink">
    <!-- Generator: Sketch 40.3 (33839) - http://www.bohemiancoding.com/sketch -->
    <title>Execution</title>
    <desc>Created with Sketch.</desc>
    <defs></defs>
    <g id="Page-1" stroke="none" stroke-width="1" fill="none" fill-rule="evenodd">
        <g id="Version-4" transform="translate(-678.000000, -2398.000000)">
            <g id="How-We-Work" transform="translate(240.000000, 2145.000000)">
                <g id="Campaign-Execution" transform="translate(349.000000, 253.000000)">
                    <g id="Execution" transform="translate(89.000000, 0.000000)">
                        <path d="M84.6012356,17.7793337 C84.6012356,15.9933188 83.1504463,14.5467276 81.3592484,14.5467276 L3.55155609,14.5467276 C1.76035817,14.5467276 0.30956891,15.9933188 0.30956891,17.7793337 L0.30956891,100.21079 C0.30956891,101.996805 1.76035817,103.443396 3.55155609,103.443396 L81.3592484,103.443396 C83.1504463,103.443396 84.6012356,101.996805 84.6012356,100.21079 L84.6012356,17.7793337 Z" id="Fill-449" fill="#00B1EA"></path>
                        <polygon id="Fill-450" fill="#FFFFFF" points="79.6994878 19.3267246 5.21131664 19.3267246 5.21131664 98.6633992 79.6994878 98.6633992"></polygon>
                        <path d="M42.4554022,3.23260613 C44.2449792,3.23260613 45.6973894,4.68081368 45.6973894,6.46521226 C45.6973894,8.24961085 44.2449792,9.6978184 42.4554022,9.6978184 C40.6642043,9.6978184 39.2134151,8.24961085 39.2134151,6.46521226 C39.2134151,4.68081368 40.6642043,3.23260613 42.4554022,3.23260613 M58.6653381,9.6978184 L52.1813638,9.6978184 C52.1813638,4.34300634 47.825754,0 42.4554022,0 C37.0834295,0 32.7294407,4.34300634 32.7294407,9.6978184 L26.2454663,9.6978184 C24.4542684,9.6978184 23.0034792,11.1460259 23.0034792,12.9304245 L23.0034792,25.8608491 C23.0034792,27.6452476 24.4542684,29.0934552 26.2454663,29.0934552 L58.6653381,29.0934552 C60.4565361,29.0934552 61.9073253,27.6452476 61.9073253,25.8608491 L61.9073253,12.9304245 C61.9073253,11.1460259 60.4549151,9.6978184 58.6653381,9.6978184" id="Fill-451" fill="#FACB1B"></path>
                        <path d="M49.8654502,75.1580926 C47.1843268,75.1580926 45.0024695,77.3336365 45.0024695,80.0070018 C45.0024695,82.680367 47.1843268,84.855911 49.8654502,84.855911 C52.5465736,84.855911 54.728431,82.680367 54.728431,80.0070018 C54.728431,77.3336365 52.5465736,75.1580926 49.8654502,75.1580926 M49.8654502,89.7048202 C44.5015825,89.7048202 40.1394887,85.3537323 40.1394887,80.0070018 C40.1394887,74.6602712 44.5015825,70.3091834 49.8654502,70.3091834 C55.229318,70.3091834 59.5914118,74.6602712 59.5914118,80.0070018 C59.5914118,85.3537323 55.229318,89.7048202 49.8654502,89.7048202" id="Fill-452" fill="#A276FF"></path>
                        <polygon id="Fill-453" fill="#5B5C5F" points="70.2426365 49.6903284 67.3021541 46.7583547 62.8914305 51.1563153 58.479086 46.7583547 55.5386036 49.6903284 59.9493272 54.0882891 55.5386036 58.487866 58.479086 61.4198398 62.8914305 57.0218791 67.3021541 61.4198398 70.2426365 58.487866 65.8319129 54.0882891"></polygon>
                        <polygon id="Fill-454" fill="#5B5C5F" points="31.2235377 40.1072675 28.2830553 37.1752938 23.8707107 41.5732544 19.3448966 37.0605363 16.4044143 39.99251 20.9302284 44.5052282 16.5195048 48.9048051 19.4599872 51.8367789 23.8707107 47.4372019 28.1679647 51.7220214 31.1084471 48.7900476 26.8128141 44.5052282"></polygon>
                        <path d="M49.2100825,46.8727889 L36.0865184,48.4034279 L39.7029551,52.1968912 C34.7783766,55.1143182 22.3080729,64.4323054 22.3080729,84.0477594 C22.3080729,85.3860584 23.3973806,86.472214 24.7395633,86.472214 C26.083367,86.472214 27.1710537,85.3860584 27.1710537,84.0477594 C27.1710537,65.1240831 40.3691835,57.2688502 43.1572925,55.822259 L47.0087732,59.8630167 L49.2100825,46.8727889 Z" id="Fill-455" fill="#A276FF"></path>
                        <path d="M42.4554022,9.6978184 C40.6642043,9.6978184 39.2134151,8.24961085 39.2134151,6.46521226 C39.2134151,4.68081368 40.6642043,3.23260613 42.4554022,3.23260613 C44.2449792,3.23260613 45.6973894,4.68081368 45.6973894,6.46521226 C45.6973894,8.24961085 44.2449792,9.6978184 42.4554022,9.6978184 M58.6653381,9.6978184 L52.1813638,9.6978184 C52.1813638,4.34300634 47.825754,0 42.4554022,0 C37.0834295,0 32.7294407,4.34300634 32.7294407,9.6978184 L26.2454663,9.6978184 C24.4542684,9.6978184 23.0034792,11.1460259 23.0034792,12.9304245 L23.0034792,19.3956368 L61.9073253,19.3956368 L61.9073253,12.9304245 C61.9073253,11.1460259 60.4549151,9.6978184 58.6653381,9.6978184" id="Fill-456" fill="#FBE158"></path>
                    </g>
                </g>
            </g>
        </g>
    </g>
</svg>