<?xml version="1.0" encoding="UTF-8"?>
<svg width="164px" height="20px" viewBox="0 0 164 20" version="1.1" xmlns="http://www.w3.org/2000/svg" xmlns:xlink="http://www.w3.org/1999/xlink">
    <!-- Generator: Sketch 40.3 (33839) - http://www.bohemiancoding.com/sketch -->
    <title>Logo</title>
    <desc>Created with Sketch.</desc>
    <defs></defs>
    <g id="Page-1" stroke="none" stroke-width="1" fill="none" fill-rule="evenodd">
        <g id="Version-4" transform="translate(-40.000000, -23.000000)">
            <g id="Header">
                <g id="Logo" transform="translate(40.000000, 23.000000)">
                    <path d="M145.953959,0.331491713 L145.953959,19.6685083 L153.163904,19.6685083 C159.241252,19.6685083 163.440147,15.441989 163.440147,9.97237569 C163.440147,4.50276243 159.241252,0.331491713 153.163904,0.331491713 L145.953959,0.331491713 L145.953959,0.331491713 Z M149.35175,3.42541436 L153.163904,3.42541436 C157.224678,3.42541436 159.876611,6.21546961 159.876611,10.0276243 C159.876611,13.839779 157.224678,16.5745856 153.163904,16.5745856 L149.35175,16.5745856 L149.35175,3.42541436 Z M129.379374,0.331399632 L129.379374,19.6684162 L143.854512,19.6684162 L143.854512,16.6297422 L132.777164,16.6297422 L132.777164,11.436372 L142.473297,11.436372 L142.473297,8.39769797 L132.777164,8.39769797 L132.777164,3.37007366 L143.71639,3.37007366 L143.71639,0.331399632 L129.379374,0.331399632 Z M111.423573,0.331399632 L111.423573,3.4805709 L117.556169,3.4805709 L117.556169,19.6684162 L120.981584,19.6684162 L120.981584,3.4805709 L127.11418,3.4805709 L127.11418,0.331399632 L111.423573,0.331399632 Z M93.0072744,0.331399632 L93.0072744,3.4805709 L99.1398711,3.4805709 L99.1398711,19.6684162 L102.565285,19.6684162 L102.565285,3.4805709 L108.697882,3.4805709 L108.697882,0.331399632 L93.0072744,0.331399632 Z M71.4327808,10.0276243 C71.4327808,15.4972376 75.5764273,20 81.5156538,20 C87.4548803,20 91.6537753,15.441989 91.6537753,9.97237569 C91.6537753,4.50276243 87.5101289,0 81.5709024,0 C75.6316759,0 71.4327808,4.55801105 71.4327808,10.0276243 Z M74.9963168,9.97237569 C74.9963168,6.1878453 77.6758748,3.12154696 81.5156538,3.12154696 C85.3554328,3.12154696 88.0902394,6.24309392 88.0902394,10.0276243 C88.0902394,13.8121547 85.4106814,16.878453 81.5709024,16.878453 C77.7311234,16.878453 74.9963168,13.7569061 74.9963168,9.97237569 Z M53.8729282,0.331491713 L53.8729282,19.6685083 L57.2707182,19.6685083 L57.2707182,13.4530387 L61.1104972,13.4530387 C65.3646409,13.4530387 68.8453039,11.1878453 68.8453039,6.82320442 C68.8453039,2.87292818 66,0.331491713 61.4972376,0.331491713 L53.8729282,0.331491713 Z M57.2707182,3.42541436 L61.2209945,3.42541436 C63.7624309,3.42541436 65.3922652,4.61325967 65.3922652,6.90607735 C65.3922652,8.97790055 63.7900552,10.3867403 61.2209945,10.3867403 L57.2707182,10.3867403 L57.2707182,3.42541436 Z M36.7734807,5.69060773 C36.7734807,9.28176796 39.0939227,10.4972376 43.2099448,11.4917127 C46.801105,12.320442 47.5745856,13.0662983 47.5745856,14.4751381 C47.5745856,15.9668508 46.2486188,16.9337017 44.1491713,16.9337017 C41.7458564,16.9337017 39.8950276,16.0220994 38.0441989,14.4198895 L36,16.8508287 C38.320442,18.9226519 41.1104972,19.9447514 44.0662983,19.9447514 C48.1270718,19.9447514 50.9723757,17.7900552 50.9723757,14.1436464 C50.9723757,10.9116022 48.8453039,9.44751381 44.7569061,8.45303867 C41.0552486,7.56906077 40.1712707,6.90607735 40.1712707,5.38674033 C40.1712707,4.08839779 41.3314917,3.06629834 43.320442,3.06629834 C45.0883978,3.06629834 46.8287293,3.75690608 48.5690608,5.05524862 L50.3922652,2.48618785 C48.4309392,0.91160221 46.1933702,0.0552486188 43.3756906,0.0552486188 C39.5359116,0.0552486188 36.7734807,2.32044199 36.7734807,5.69060773 Z" id="Combined-Shape" fill="#FFFFFF"></path>
                    <path d="M23.4429112,17.3129079 C21.1104819,17.3129079 19.2197419,15.4442226 19.2197419,13.1389146 C19.2197419,10.8336065 21.1104819,8.96521921 23.4429112,8.96521921 C25.7756385,8.96521921 27.6666766,10.8336065 27.6666766,13.1389146 C27.6666766,15.4442226 25.7756385,17.3129079 23.4429112,17.3129079 L23.4429112,17.3129079 Z M6.9659941,17.3129079 C4.63326677,17.3129079 2.74222871,15.4442226 2.74222871,13.1389146 C2.74222871,10.8336065 4.63326677,8.96521921 6.9659941,8.96521921 C9.29842339,8.96521921 11.1891634,10.8336065 11.1891634,13.1389146 C11.1891634,15.4442226 9.29842339,17.3129079 6.9659941,17.3129079 L6.9659941,17.3129079 Z M28.8734241,9.17324829 L28.8740202,9.17324829 C28.8740202,9.17324829 23.5212947,1.36619676 23.0775191,0.973981462 L23.0772211,0.973683426 C22.3926326,0.368372426 21.4889876,0 20.4983161,0 C18.3605043,0 16.6277233,1.71251453 16.6277233,3.82499329 C16.6277233,4.0845826 16.6542485,4.33821119 16.7040205,4.58319673 L15.6904003,5.15721396 L15.6904003,6.10645844 L14.4407356,6.10645844 L14.4407356,5.14588859 L13.4396328,4.51405239 C13.4807618,4.29052544 13.5034125,4.06044169 13.5034125,3.82499329 C13.5034125,1.71251453 11.7706315,0 9.63281972,0 C8.82991089,0 8.08422496,0.24170715 7.46580038,0.655381039 L7.32453134,0.655381039 L7.39904032,0.702470718 C6.66080529,1.21896701 1.18022233,9.46830388 1.18022233,9.46830388 L1.18052037,9.46830388 C0.435728549,10.5486842 0,11.8531875 0,13.259023 C0,16.98179 3.05397431,20 6.82114863,20 C10.588323,20 13.6422973,16.98179 13.6422973,13.259023 L13.6422973,10.9718952 L14.6490627,9.81134325 L14.6490627,8.4734599 L15.5169433,8.4734599 L15.5169433,9.77706911 L16.6277233,10.8061872 L16.6277233,13.259023 C16.6277233,16.98179 19.6816976,20 23.4488719,20 C27.2160463,20 30.2700206,16.98179 30.2700206,13.259023 C30.2700206,11.7226478 29.7490537,10.306977 28.8734241,9.17324829 L28.8734241,9.17324829 Z" id="Binoculars" fill="#00B1EA"></path>
                </g>
            </g>
        </g>
    </g>
</svg>