<?xml version="1.0" encoding="UTF-8"?>
<svg width="78px" height="103px" viewBox="0 0 78 103" version="1.1" xmlns="http://www.w3.org/2000/svg" xmlns:xlink="http://www.w3.org/1999/xlink">
    <!-- Generator: Sketch 40.3 (33839) - http://www.bohemiancoding.com/sketch -->
    <title>Checklist</title>
    <desc>Created with Sketch.</desc>
    <defs></defs>
    <g id="Page-1" stroke="none" stroke-width="1" fill="none" fill-rule="evenodd">
        <g id="Version-4" transform="translate(-354.000000, -2402.000000)">
            <g id="How-We-Work" transform="translate(240.000000, 2145.000000)">
                <g id="Define-Objectives" transform="translate(27.000000, 257.000000)">
                    <g id="Checklist" transform="translate(87.000000, 0.000000)">
                        <path d="M0.442640647,6.18 C0.442640647,2.76651562 3.21635324,0 6.63871765,0 L52.0766157,0 L77.8936032,21.63 L77.8936032,96.82 C77.8936032,100.233484 75.1198906,103 71.6975262,103 L6.63871765,103 C3.21635324,103 0.442640647,100.233484 0.442640647,96.82 L0.442640647,6.18 Z" id="Fill-392" fill="#00B1EA"></path>
                        <path d="M52.0766157,0 L52.0766157,15.45 C52.0766157,18.8634844 54.8503283,21.63 58.2726927,21.63 L77.8936032,21.63 L52.0766157,0 Z" id="Fill-393" fill="#008FBD"></path>
                        <path d="M63.3715477,33.3042092 C63.3715477,34.1893654 62.6454449,34.9135842 61.757986,34.9135842 L37.5545602,34.9135842 C36.6671013,34.9135842 35.9409985,34.1893654 35.9409985,33.3042092 C35.9409985,32.4190529 36.6671013,31.6948342 37.5545602,31.6948342 L61.757986,31.6948342 C62.6454449,31.6948342 63.3715477,32.4190529 63.3715477,33.3042092" id="Fill-397" fill="#ADECFF"></path>
                        <path d="M53.6901774,41.3510842 C53.6901774,42.2362404 52.9640746,42.9604592 52.0766157,42.9604592 L37.5545602,42.9604592 C36.6671013,42.9604592 35.9409985,42.2362404 35.9409985,41.3510842 C35.9409985,40.4659279 36.6671013,39.7417092 37.5545602,39.7417092 L52.0766157,39.7417092 C52.9640746,39.7417092 53.6901774,40.4659279 53.6901774,41.3510842" id="Fill-398" fill="#ADECFF"></path>
                        <path d="M63.3715477,54.2260842 C63.3715477,55.1112404 62.6454449,55.8354592 61.757986,55.8354592 L37.5545602,55.8354592 C36.6671013,55.8354592 35.9409985,55.1112404 35.9409985,54.2260842 C35.9409985,53.3409279 36.6671013,52.6167092 37.5545602,52.6167092 L61.757986,52.6167092 C62.6454449,52.6167092 63.3715477,53.3409279 63.3715477,54.2260842" id="Fill-399" fill="#ADECFF"></path>
                        <path d="M53.6901774,62.2729592 C53.6901774,63.1581154 52.9640746,63.8823342 52.0766157,63.8823342 L37.5545602,63.8823342 C36.6671013,63.8823342 35.9409985,63.1581154 35.9409985,62.2729592 C35.9409985,61.3878029 36.6671013,60.6635842 37.5545602,60.6635842 L52.0766157,60.6635842 C52.9640746,60.6635842 53.6901774,61.3878029 53.6901774,62.2729592" id="Fill-400" fill="#ADECFF"></path>
                        <path d="M63.3715477,75.1479592 C63.3715477,76.0331154 62.6454449,76.7573342 61.757986,76.7573342 L37.5545602,76.7573342 C36.6671013,76.7573342 35.9409985,76.0331154 35.9409985,75.1479592 C35.9409985,74.2628029 36.6671013,73.5385842 37.5545602,73.5385842 L61.757986,73.5385842 C62.6454449,73.5385842 63.3715477,74.2628029 63.3715477,75.1479592" id="Fill-401" fill="#ADECFF"></path>
                        <path d="M53.6901774,83.1948342 C53.6901774,84.0799904 52.9640746,84.8042092 52.0766157,84.8042092 L37.5545602,84.8042092 C36.6671013,84.8042092 35.9409985,84.0799904 35.9409985,83.1948342 C35.9409985,82.3096779 36.6671013,81.5854592 37.5545602,81.5854592 L52.0766157,81.5854592 C52.9640746,81.5854592 53.6901774,82.3096779 53.6901774,83.1948342" id="Fill-402" fill="#ADECFF"></path>
                        <path d="M19.913974,44.5698342 L13.8243921,38.4960529 C13.1934894,37.8667873 13.1934894,36.8480529 13.8243921,36.2203967 C14.4536811,35.5911311 15.4750657,35.5911311 16.1059683,36.2203967 L19.6977567,39.8012561 L26.632845,31.4984904 C27.2040458,30.8161154 28.2222033,30.7243811 28.9063534,31.2924904 C29.5905036,31.8622092 29.6840902,32.8761154 29.1128893,33.5600998 L19.913974,44.5698342 Z" id="Fill-403" fill="#FFFFFF"></path>
                        <path d="M19.913974,65.4917092 L13.8243921,59.4179279 C13.1934894,58.7886623 13.1934894,57.7699279 13.8243921,57.1422717 C14.4536811,56.5130061 15.4750657,56.5130061 16.1059683,57.1422717 L19.6977567,60.7231311 L26.632845,52.4203654 C27.2040458,51.7379904 28.2222033,51.6462561 28.9063534,52.2143654 C29.5905036,52.7840842 29.6840902,53.7979904 29.1128893,54.4819748 L19.913974,65.4917092 Z" id="Fill-404" fill="#FFFFFF"></path>
                        <path d="M19.913974,86.4135842 L13.8243921,80.3398029 C13.1934894,79.7105373 13.1934894,78.6918029 13.8243921,78.0641467 C14.4536811,77.4348811 15.4750657,77.4348811 16.1059683,78.0641467 L19.6977567,81.6450061 L26.632845,73.3422404 C27.2040458,72.6598654 28.2222033,72.5681311 28.9063534,73.1362404 C29.5905036,73.7059592 29.6840902,74.7198654 29.1128893,75.4038498 L19.913974,86.4135842 Z" id="Fill-405" fill="#FFFFFF"></path>
                    </g>
                </g>
            </g>
        </g>
    </g>
</svg>