<?xml version="1.0" encoding="UTF-8"?>
<svg width="111px" height="103px" viewBox="0 0 111 103" version="1.1" xmlns="http://www.w3.org/2000/svg" xmlns:xlink="http://www.w3.org/1999/xlink">
    <!-- Generator: Sketch 40.3 (33839) - http://www.bohemiancoding.com/sketch -->
    <title>Results</title>
    <desc>Created with Sketch.</desc>
    <defs></defs>
    <g id="Page-1" stroke="none" stroke-width="1" fill="none" fill-rule="evenodd">
        <g id="Version-4" transform="translate(-985.000000, -2406.000000)">
            <g id="How-We-Work" transform="translate(240.000000, 2145.000000)">
                <g id="Results" transform="translate(671.000000, 261.000000)">
                    <g transform="translate(74.000000, 0.000000)">
                        <polygon id="Fill-516" fill="#FFFFFF" points="24.6396875 0 110.577188 0 110.577188 103 24.6396875 103"></polygon>
                        <path d="M74.0095781,78.9666667 C74.0095781,86.5509 80.1661406,92.7 87.7595781,92.7 C95.3530156,92.7 102.224578,86.5182833 101.509578,78.9666667 C100.782547,71.2828667 94.8184844,65.1612333 87.7595781,65.2333333 C80.1661406,65.3123 74.0095781,71.3824333 74.0095781,78.9666667" id="Fill-517" fill="#FBE158"></path>
                        <path d="M87.7595781,92.7 C93.5345781,92.7 98.4725469,89.15165 100.512703,84.1166667 L75.1095781,73.5540167 C74.3997344,75.2123167 74.0095781,77.044 74.0095781,78.9666667 C74.0095781,86.5543333 80.1627031,92.7 87.7595781,92.7 Z" id="Fill-518" fill="#00B1EA"></path>
                        <path d="M73.9880938,78.9723317 C73.9880938,83.8133317 76.4974688,88.070665 80.29075,90.5203483 L87.7260625,78.8126817 L75.0880938,73.5596817 C74.37825,75.2179817 73.9880938,77.049665 73.9880938,78.9723317" id="Fill-519" fill="#46C5B7"></path>
                        <path d="M75.1095781,73.5535017 L87.7595781,78.8185183 L87.7595781,65.2328183 C82.0877031,65.2328183 77.2184844,68.6661517 75.1095781,73.5535017" id="Fill-520" fill="#FA5655"></path>
                        <polygon id="Fill-521" fill="#00B1EA" points="93.3896875 22.3166667 100.264688 22.3166667 100.264688 53.2166667 93.3896875 53.2166667"></polygon>
                        <polygon id="Fill-522" fill="#00B1EA" points="80.8634375 36.05 87.7384375 36.05 87.7384375 53.2166667 80.8634375 53.2166667"></polygon>
                        <path d="M62.1656719,70.6695017 C62.1656719,72.0909017 63.3206719,73.2445017 64.7437969,73.2445017 C66.1669219,73.2445017 67.3219219,72.0909017 67.3219219,70.6695017 C67.3219219,69.2481017 66.1669219,68.0945017 64.7437969,68.0945017 C63.3206719,68.0945017 62.1656719,69.2481017 62.1656719,70.6695017" id="Fill-523" fill="#CFD3D4"></path>
                        <polygon id="Fill-524" fill="#CFD3D4" points="41.3321875 71.52835 58.5196875 71.52835 58.5196875 69.8116833 41.3321875 69.8116833"></polygon>
                        <path d="M62.1656719,79.5388317 C62.1656719,80.9602317 63.3206719,82.1138317 64.7437969,82.1138317 C66.1669219,82.1138317 67.3219219,80.9602317 67.3219219,79.5388317 C67.3219219,78.1174317 66.1669219,76.9638317 64.7437969,76.9638317 C63.3206719,76.9638317 62.1656719,78.1174317 62.1656719,79.5388317" id="Fill-525" fill="#CFD3D4"></path>
                        <polygon id="Fill-526" fill="#CFD3D4" points="41.3321875 80.39665 58.5196875 80.39665 58.5196875 78.6799833 41.3321875 78.6799833"></polygon>
                        <path d="M62.1656719,88.4083333 C62.1656719,89.8297333 63.3206719,90.9833333 64.7437969,90.9833333 C66.1669219,90.9833333 67.3219219,89.8297333 67.3219219,88.4083333 C67.3219219,86.9869333 66.1669219,85.8333333 64.7437969,85.8333333 C63.3206719,85.8333333 62.1656719,86.9869333 62.1656719,88.4083333" id="Fill-527" fill="#CFD3D4"></path>
                        <polygon id="Fill-528" fill="#CFD3D4" points="41.3321875 89.2666667 58.5196875 89.2666667 58.5196875 87.55 41.3321875 87.55"></polygon>
                        <path d="M29.3519844,53.253575 L10.7929219,71.7901417 C8.48292187,74.0973417 4.73948437,74.0973417 2.42948437,71.7901417 C0.117765625,69.481225 0.117765625,65.742325 2.42948437,63.435125 L21.0297969,44.8573583 C23.0888594,48.2821083 25.9437031,51.1643917 29.3519844,53.253575" id="Fill-529" fill="#84462D"></path>
                        <path d="M24.6261094,49.4836033 L2.36657813,71.7161533 C0.118453125,69.4089533 0.139078125,65.7215533 2.41814063,63.4349533 L21.0287656,44.8468867 C22.0428281,46.5275033 23.2562656,48.08452 24.6261094,49.4836033" id="Fill-530" fill="#9C6144"></path>
                        <path d="M42.515375,56.82098 C28.7739687,56.82098 17.5935,45.6540633 17.5935,31.9293133 C17.5935,18.2045633 28.7739687,7.03764667 42.515375,7.03764667 C56.2567812,7.03764667 67.43725,18.2045633 67.43725,31.9293133 C67.43725,45.6540633 56.2567812,56.82098 42.515375,56.82098" id="Fill-531" fill="#FFFFFF"></path>
                        <path d="M42.515375,3.60431333 C26.8781875,3.60431333 14.156,16.31108 14.156,31.9293133 C14.156,47.5475467 26.8781875,60.2543133 42.515375,60.2543133 C58.1525625,60.2543133 70.87475,47.5475467 70.87475,31.9293133 C70.87475,16.31108 58.1525625,3.60431333 42.515375,3.60431333 M42.515375,7.01704667 C56.286,7.01704667 67.457875,18.17538 67.457875,31.9293133 C67.457875,45.6832467 56.286,56.84158 42.515375,56.84158 C28.6949062,56.84158 17.572875,45.5768133 17.572875,31.9293133 C17.572875,18.17538 28.74475,7.01704667 42.515375,7.01704667" id="Fill-532" fill="#CFD3D4"></path>
                        <path d="M62.3806875,31.9293133 C62.3806875,20.97183 53.4861562,12.08808 42.515375,12.08808 C31.5445937,12.08808 22.6500625,20.97183 22.6500625,31.9293133 C22.6500625,42.8867967 31.5445937,51.7705467 42.515375,51.7705467 C53.4861562,51.7705467 62.3806875,42.8867967 62.3806875,31.9293133" id="Fill-533" fill="#6FDAF1"></path>
                        <path d="M42.515375,12.0879083 C31.5445937,12.0879083 22.6500625,20.9716583 22.6500625,31.9291417 C22.6500625,37.350375 24.832875,42.2600417 28.3614687,45.8410083 L56.444125,17.7923917 C52.8588125,14.268075 47.9431875,12.0879083 42.515375,12.0879083" id="Fill-534" fill="#9CE5F4"></path>
                    </g>
                </g>
            </g>
        </g>
    </g>
</svg>